<svg width="40" height="41" viewBox="0 0 40 41" fill="none" xmlns="http://www.w3.org/2000/svg">
<rect y="0.224609" width="40" height="40" rx="20" fill="white"/>
<path d="M29 15.8062V24.3247C29 25.0133 28.7369 25.676 28.2644 26.1771C27.792 26.6782 27.1459 26.9797 26.4584 27.0202L26.3 27.0247H13.7C13.0113 27.0247 12.3486 26.7616 11.8476 26.2891C11.3465 25.8166 11.0449 25.1706 11.0045 24.4831L11 24.3247V15.8062L19.5005 21.4735L19.6049 21.5329C19.7279 21.593 19.8631 21.6242 20 21.6242C20.1369 21.6242 20.2721 21.593 20.3951 21.5329L20.4995 21.4735L29 15.8062Z" fill="#22CA38"/>
<path d="M26.2999 12.6245C27.2719 12.6245 28.1242 13.1375 28.5994 13.9088L19.9999 19.6418L11.4004 13.9088C11.6261 13.5424 11.9362 13.2352 12.3047 13.0129C12.6732 12.7905 13.0896 12.6596 13.519 12.6308L13.6999 12.6245H26.2999Z" fill="#22CA38"/>
</svg>
