<svg width="40" height="41" viewBox="0 0 40 41" fill="none" xmlns="http://www.w3.org/2000/svg">
<rect y="0.224609" width="40" height="40" rx="20" fill="white"/>
<path d="M20 10.6245C22.3869 10.6245 24.6761 11.5649 26.364 13.2387C28.0518 14.9126 29 17.1828 29 19.55C29 22.5986 27.324 25.0937 25.558 26.8838C24.6757 27.7685 23.7129 28.5705 22.682 29.2798L22.256 29.5674L22.056 29.6993L21.679 29.9373L21.343 30.1406L20.927 30.3806C20.6446 30.5404 20.3251 30.6245 20 30.6245C19.6749 30.6245 19.3554 30.5404 19.073 30.3806L18.657 30.1406L18.137 29.8233L17.945 29.6993L17.535 29.4286C16.4228 28.6823 15.3869 27.83 14.442 26.8838C12.676 25.0927 11 22.5986 11 19.55C11 17.1828 11.9482 14.9126 13.636 13.2387C15.3239 11.5649 17.6131 10.6245 20 10.6245ZM20 16.5748C19.606 16.5748 19.2159 16.6518 18.8519 16.8013C18.488 16.9508 18.1573 17.17 17.8787 17.4462C17.6001 17.7225 17.3791 18.0505 17.2284 18.4115C17.0776 18.7724 17 19.1593 17 19.55C17 19.9407 17.0776 20.3276 17.2284 20.6886C17.3791 21.0495 17.6001 21.3775 17.8787 21.6538C18.1573 21.93 18.488 22.1492 18.8519 22.2987C19.2159 22.4482 19.606 22.5252 20 22.5252C20.7956 22.5252 21.5587 22.2117 22.1213 21.6538C22.6839 21.0958 23 20.3391 23 19.55C23 18.7609 22.6839 18.0042 22.1213 17.4462C21.5587 16.8883 20.7956 16.5748 20 16.5748Z" fill="#22CA38"/>
</svg>
