<svg width="40" height="41" viewBox="0 0 40 41" fill="none" xmlns="http://www.w3.org/2000/svg">
<rect y="0.224609" width="40" height="40" rx="20" fill="white"/>
<path d="M15.2178 19.549C16.4978 22.0645 18.56 24.1178 21.0756 25.4067L23.0311 23.4512C23.2711 23.2112 23.6267 23.1312 23.9378 23.2378C24.9333 23.5667 26.0089 23.7445 27.1111 23.7445C27.6 23.7445 28 24.1445 28 24.6334V27.7356C28 28.2245 27.6 28.6245 27.1111 28.6245C18.7644 28.6245 12 21.8601 12 13.5134C12 13.0245 12.4 12.6245 12.8889 12.6245H16C16.4889 12.6245 16.8889 13.0245 16.8889 13.5134C16.8889 14.6245 17.0667 15.6912 17.3956 16.6867C17.4933 16.9978 17.4222 17.3445 17.1733 17.5934L15.2178 19.549Z" fill="#22CA38"/>
</svg>
