<svg xmlns="http://www.w3.org/2000/svg" xmlns:xlink="http://www.w3.org/1999/xlink" width="6912" zoomAndPan="magnify" viewBox="0 0 5184 2592.000001" height="3456" preserveAspectRatio="xMidYMid meet" version="1.0"><defs><g/><clipPath id="fe0c8b4c9e"><path d="M 1012.4375 38.894531 L 3121.949219 38.894531 L 3121.949219 1032.671875 L 1012.4375 1032.671875 Z M 1012.4375 38.894531 " clip-rule="nonzero"/></clipPath><clipPath id="7c8b0cf030"><path d="M 0.4375 0.894531 L 2109 0.894531 L 2109 994.671875 L 0.4375 994.671875 Z M 0.4375 0.894531 " clip-rule="nonzero"/></clipPath><clipPath id="735918256c"><rect x="0" width="2110" y="0" height="995"/></clipPath><clipPath id="6ab63cbc43"><path d="M 1012.4375 38.996094 L 3121.074219 38.996094 L 3121.074219 1032.445312 L 1012.4375 1032.445312 Z M 1012.4375 38.996094 " clip-rule="nonzero"/></clipPath><clipPath id="d818ebed5a"><path d="M 1183.105469 38.894531 L 3825 38.894531 L 3825 1032.671875 L 1183.105469 1032.671875 Z M 1183.105469 38.894531 " clip-rule="nonzero"/></clipPath><clipPath id="8d41413b30"><path d="M 3824.480469 113.863281 L 3824.480469 957.703125 C 3824.480469 977.585938 3816.582031 996.65625 3802.523438 1010.714844 C 3788.464844 1024.773438 3769.394531 1032.671875 3749.511719 1032.671875 L 1258.074219 1032.671875 C 1238.191406 1032.671875 1219.121094 1024.773438 1205.0625 1010.714844 C 1191.003906 996.65625 1183.105469 977.585938 1183.105469 957.703125 L 1183.105469 113.863281 C 1183.105469 93.980469 1191.003906 74.910156 1205.0625 60.851562 C 1219.121094 46.792969 1238.191406 38.894531 1258.074219 38.894531 L 3749.511719 38.894531 C 3769.394531 38.894531 3788.464844 46.792969 3802.523438 60.851562 C 3816.582031 74.910156 3824.480469 93.980469 3824.480469 113.863281 Z M 3824.480469 113.863281 " clip-rule="nonzero"/></clipPath><clipPath id="c239614faa"><path d="M 0.105469 0.894531 L 2640 0.894531 L 2640 994.671875 L 0.105469 994.671875 Z M 0.105469 0.894531 " clip-rule="nonzero"/></clipPath><clipPath id="e6ce2a716d"><path d="M 2641.480469 75.863281 L 2641.480469 919.703125 C 2641.480469 939.585938 2633.582031 958.65625 2619.523438 972.714844 C 2605.464844 986.773438 2586.394531 994.671875 2566.511719 994.671875 L 75.074219 994.671875 C 55.191406 994.671875 36.121094 986.773438 22.0625 972.714844 C 8.003906 958.65625 0.105469 939.585938 0.105469 919.703125 L 0.105469 75.863281 C 0.105469 55.980469 8.003906 36.910156 22.0625 22.851562 C 36.121094 8.792969 55.191406 0.894531 75.074219 0.894531 L 2566.511719 0.894531 C 2586.394531 0.894531 2605.464844 8.792969 2619.523438 22.851562 C 2633.582031 36.910156 2641.480469 55.980469 2641.480469 75.863281 Z M 2641.480469 75.863281 " clip-rule="nonzero"/></clipPath><clipPath id="ac587fd80e"><rect x="0" width="2642" y="0" height="995"/></clipPath><clipPath id="8dd15fea59"><path d="M 1183.105469 38.996094 L 3823.460938 38.996094 L 3823.460938 1032.445312 L 1183.105469 1032.445312 Z M 1183.105469 38.996094 " clip-rule="nonzero"/></clipPath><clipPath id="ca6c508e7f"><path d="M 3824.457031 113.96875 L 3824.457031 957.796875 C 3824.457031 977.679688 3816.558594 996.75 3802.5 1010.808594 C 3788.4375 1024.867188 3769.371094 1032.769531 3749.488281 1032.769531 L 1258.074219 1032.769531 C 1238.191406 1032.769531 1219.121094 1024.867188 1205.0625 1010.808594 C 1191.003906 996.75 1183.105469 977.679688 1183.105469 957.796875 L 1183.105469 113.96875 C 1183.105469 94.082031 1191.003906 75.015625 1205.0625 60.957031 C 1219.121094 46.894531 1238.191406 38.996094 1258.074219 38.996094 L 3749.488281 38.996094 C 3769.371094 38.996094 3788.4375 46.894531 3802.5 60.957031 C 3816.558594 75.015625 3824.457031 94.082031 3824.457031 113.96875 Z M 3824.457031 113.96875 " clip-rule="nonzero"/></clipPath><clipPath id="eb28c410f9"><rect x="0" width="2436" y="0" height="574"/></clipPath><clipPath id="066f6f4917"><path d="M 0.738281 1256 L 3828 1256 L 3828 1630.949219 L 0.738281 1630.949219 Z M 0.738281 1256 " clip-rule="nonzero"/></clipPath><clipPath id="3fa375e2cc"><path d="M 0.738281 1 L 3827.980469 1 L 3827.980469 374.949219 L 0.738281 374.949219 Z M 0.738281 1 " clip-rule="nonzero"/></clipPath><clipPath id="6fa001e264"><rect x="0" width="3828" y="0" height="375"/></clipPath><clipPath id="5e5e36db73"><rect x="0" width="3866" y="0" height="1631"/></clipPath></defs><g transform="matrix(1, 0, 0, 1, 678, 474)"><g clip-path="url(#5e5e36db73)"><g clip-path="url(#fe0c8b4c9e)"><g transform="matrix(1, 0, 0, 1, 1012, 38)"><g clip-path="url(#735918256c)"><g clip-path="url(#7c8b0cf030)"><path fill="#000000" d="M 0.4375 0.894531 L 2108.335938 0.894531 L 2108.335938 994.671875 L 0.4375 994.671875 Z M 0.4375 0.894531 " fill-opacity="1" fill-rule="nonzero"/></g></g></g></g><g clip-path="url(#6ab63cbc43)"><path stroke-linecap="butt" transform="matrix(3.038385, 0.000000000000000047, -0.000000000000000047, 3.038385, 1012.436539, 38.996812)" fill="none" stroke-linejoin="miter" d="M 0.000316405 -0.000236319 L 694.281142 -0.000236319 L 694.281142 327.072718 L 0.000316405 327.072718 Z M 0.000316405 -0.000236319 " stroke="#000000" stroke-width="1.973972" stroke-opacity="1" stroke-miterlimit="4"/></g><g clip-path="url(#d818ebed5a)"><g clip-path="url(#8d41413b30)"><g transform="matrix(1, 0, 0, 1, 1183, 38)"><g clip-path="url(#ac587fd80e)"><g clip-path="url(#c239614faa)"><g clip-path="url(#e6ce2a716d)"><path fill="#000000" d="M 0.105469 0.894531 L 2639.832031 0.894531 L 2639.832031 994.671875 L 0.105469 994.671875 Z M 0.105469 0.894531 " fill-opacity="1" fill-rule="nonzero"/></g></g></g></g></g></g><g clip-path="url(#8dd15fea59)"><g clip-path="url(#ca6c508e7f)"><path stroke-linecap="butt" transform="matrix(3.038385, 0.000000000000000047, -0.000000000000000047, 3.038385, 1183.104096, 38.996988)" fill="none" stroke-linejoin="miter" d="M 869.328035 24.674875 L 869.328035 302.397491 C 869.328035 308.941367 866.728483 315.217831 862.101487 319.844827 C 857.473205 324.471823 851.198027 327.072661 844.654151 327.072661 L 24.674336 327.072661 C 18.13046 327.072661 11.853996 324.471823 7.227 319.844827 C 2.600003 315.217831 0.000451925 308.941367 0.000451925 302.397491 L 0.000451925 24.674875 C 0.000451925 18.129714 2.600003 11.854535 7.227 7.227539 C 11.853996 2.599257 18.13046 -0.000294196 24.674336 -0.000294196 L 844.654151 -0.000294196 C 851.198027 -0.000294196 857.473205 2.599257 862.101487 7.227539 C 866.728483 11.854535 869.328035 18.129714 869.328035 24.674875 Z M 869.328035 24.674875 " stroke="#000000" stroke-width="1.973972" stroke-opacity="1" stroke-miterlimit="4"/></g></g><g transform="matrix(1, 0, 0, 1, 1183, 248)"><g clip-path="url(#eb28c410f9)"><g fill="#ffffff" fill-opacity="1"><g transform="translate(0.104091, 429.693308)"><g><path d="M 9.125 0 L 180.9375 -422.953125 L 189.5 -422.953125 L 361.296875 0 L 269.40625 0 L 252.859375 -43.953125 L 117.578125 -43.953125 L 101.59375 0 Z M 147.265625 -120.4375 L 222.609375 -120.4375 L 185.5 -226.59375 Z M 147.265625 -120.4375 "/></g></g></g><g fill="#ffffff" fill-opacity="1"><g transform="translate(372.827795, 429.693308)"><g><path d="M 45.65625 -408.109375 L 127.28125 -408.109375 L 127.28125 -81.625 L 256.84375 -81.625 L 256.84375 0 L 45.65625 0 Z M 45.65625 -408.109375 "/></g></g></g><g fill="#ffffff" fill-opacity="1"><g transform="translate(654.22555, 429.693308)"><g><path d="M 21.6875 -232.875 L 229.453125 -232.875 L 229.453125 -156.96875 L 21.6875 -156.96875 Z M 21.6875 -232.875 "/></g></g></g><g fill="#ffffff" fill-opacity="1"><g transform="translate(913.362737, 429.693308)"><g><path d="M 331.046875 0 L 249.4375 0 L 249.4375 -163.25 L 127.28125 -163.25 L 127.28125 0 L 45.65625 0 L 45.65625 -408.109375 L 127.28125 -408.109375 L 127.28125 -244.859375 L 249.4375 -244.859375 L 249.4375 -408.109375 L 331.046875 -408.109375 Z M 331.046875 0 "/></g></g></g><g fill="#ffffff" fill-opacity="1"><g transform="translate(1290.652692, 429.693308)"><g><path d="M 338.46875 -142.125 C 338.46875 -114.34375 333.140625 -90.554688 322.484375 -70.765625 C 311.835938 -50.984375 297.757812 -35.191406 280.25 -23.390625 C 262.75 -11.597656 243.535156 -3.707031 222.609375 0.28125 C 201.679688 4.28125 180.65625 4.28125 159.53125 0.28125 C 138.414062 -3.707031 119.101562 -11.597656 101.59375 -23.390625 C 84.09375 -35.191406 70.015625 -50.984375 59.359375 -70.765625 C 48.703125 -90.554688 43.375 -114.34375 43.375 -142.125 L 43.375 -408.109375 L 125 -408.109375 L 125 -142.6875 C 125 -125.570312 129.46875 -111.875 138.40625 -101.59375 C 147.351562 -91.320312 158.390625 -84.472656 171.515625 -81.046875 C 184.648438 -77.617188 197.78125 -77.617188 210.90625 -81.046875 C 224.03125 -84.472656 235.0625 -91.320312 244 -101.59375 C 252.945312 -111.875 257.421875 -125.570312 257.421875 -142.6875 L 257.421875 -408.109375 L 338.46875 -408.109375 Z M 338.46875 -142.125 "/></g></g></g><g fill="#ffffff" fill-opacity="1"><g transform="translate(1673.650441, 429.693308)"><g><path d="M 167.234375 -408.109375 C 201.097656 -408.109375 230.773438 -402.398438 256.265625 -390.984375 C 281.765625 -379.566406 302.984375 -364.15625 319.921875 -344.75 C 336.859375 -325.34375 349.601562 -303.460938 358.15625 -279.109375 C 366.71875 -254.753906 371 -229.734375 371 -204.046875 C 371 -178.367188 366.71875 -153.351562 358.15625 -129 C 349.601562 -104.644531 336.859375 -82.765625 319.921875 -63.359375 C 302.984375 -43.953125 281.765625 -28.539062 256.265625 -17.125 C 230.773438 -5.707031 201.097656 0 167.234375 0 L 45.65625 0 L 45.65625 -408.109375 Z M 167.234375 -326.484375 L 127.28125 -326.484375 L 127.28125 -81.625 L 167.234375 -81.625 C 190.066406 -81.625 209.566406 -86 225.734375 -94.75 C 241.910156 -103.5 254.847656 -115.195312 264.546875 -129.84375 C 274.253906 -144.5 280.722656 -160.578125 283.953125 -178.078125 C 287.191406 -195.585938 287.191406 -213 283.953125 -230.3125 C 280.722656 -247.625 274.253906 -263.601562 264.546875 -278.25 C 254.847656 -292.90625 241.910156 -304.609375 225.734375 -313.359375 C 209.566406 -322.109375 190.066406 -326.484375 167.234375 -326.484375 Z M 167.234375 -326.484375 "/></g></g></g><g fill="#ffffff" fill-opacity="1"><g transform="translate(2062.356197, 429.693308)"><g><path d="M 9.125 0 L 180.9375 -422.953125 L 189.5 -422.953125 L 361.296875 0 L 269.40625 0 L 252.859375 -43.953125 L 117.578125 -43.953125 L 101.59375 0 Z M 147.265625 -120.4375 L 222.609375 -120.4375 L 185.5 -226.59375 Z M 147.265625 -120.4375 "/></g></g></g></g></g><path fill="#000000" d="M 184.238281 47.609375 L 44.804688 47.609375 C 24.472656 47.609375 7.042969 65.039062 7.042969 85.375 L 7.042969 990.320312 C 7.042969 1010.65625 24.472656 1028.085938 44.804688 1028.085938 L 184.238281 1028.085938 C 204.574219 1028.085938 222.003906 1010.65625 222.003906 990.320312 L 222.003906 86.828125 C 222.003906 65.039062 204.574219 47.609375 184.238281 47.609375 Z M 195.859375 200.128906 L 33.1875 200.128906 L 33.1875 175.433594 L 195.859375 175.433594 Z M 195.859375 200.128906 " fill-opacity="1" fill-rule="nonzero"/><path fill="#000000" d="M 422.4375 47.609375 L 283.003906 47.609375 C 262.671875 47.609375 245.242188 65.039062 245.242188 85.375 L 245.242188 990.320312 C 245.242188 1010.65625 262.671875 1028.085938 283.003906 1028.085938 L 422.4375 1028.085938 C 442.773438 1028.085938 460.203125 1010.65625 460.203125 990.320312 L 460.203125 86.828125 C 460.203125 65.039062 442.773438 47.609375 422.4375 47.609375 Z M 434.058594 200.128906 L 271.386719 200.128906 L 271.386719 175.433594 L 434.058594 175.433594 Z M 434.058594 200.128906 " fill-opacity="1" fill-rule="nonzero"/><path fill="#000000" d="M 916.265625 945.289062 L 683.878906 70.847656 C 678.066406 50.511719 657.734375 38.894531 637.398438 43.25 L 502.324219 79.566406 C 481.988281 85.375 470.371094 105.710938 474.726562 126.046875 L 707.117188 1000.488281 C 712.925781 1020.824219 733.261719 1032.445312 753.59375 1028.085938 L 888.671875 991.773438 C 909.003906 985.960938 920.625 965.625 916.265625 945.289062 Z M 529.917969 229.179688 L 524.109375 205.9375 L 680.972656 163.8125 L 686.78125 187.054688 Z M 529.917969 229.179688 " fill-opacity="1" fill-rule="nonzero"/><g clip-path="url(#066f6f4917)"><g transform="matrix(1, 0, 0, 1, 0, 1256)"><g clip-path="url(#6fa001e264)"><g clip-path="url(#3fa375e2cc)"><path fill="#22ca38" d="M 94.324219 1.078125 L 3733.648438 1.078125 C 3758.421875 1.078125 3782.183594 10.921875 3799.703125 28.441406 C 3817.222656 45.960938 3827.066406 69.722656 3827.066406 94.496094 L 3827.066406 281.335938 C 3827.066406 306.113281 3817.222656 329.875 3799.703125 347.394531 C 3782.183594 364.914062 3758.421875 374.757812 3733.648438 374.757812 L 94.324219 374.757812 C 42.726562 374.757812 0.902344 332.929688 0.902344 281.335938 L 0.902344 94.496094 C 0.902344 42.902344 42.726562 1.078125 94.324219 1.078125 Z M 94.324219 1.078125 " fill-opacity="1" fill-rule="nonzero"/></g><g fill="#ffffff" fill-opacity="1"><g transform="translate(107.622987, 254.656412)"><g><path d="M 59.5 0 L 21.34375 0 L 21.34375 -190.75 L 59.5 -190.75 Z M 59.5 0 "/></g></g></g><g fill="#ffffff" fill-opacity="1"><g transform="translate(188.723867, 254.656412)"><g><path d="M 68.03125 0 L 68.03125 -85.90625 L 1.59375 -190.75 L 48.015625 -190.75 L 86.96875 -125.125 L 125.921875 -190.75 L 172.609375 -190.75 L 105.90625 -85.90625 L 105.90625 0 Z M 68.03125 0 "/></g></g></g><g fill="#ffffff" fill-opacity="1"><g transform="translate(361.863558, 254.656412)"><g><path d="M 116.578125 -152.59375 L 59.5 -152.59375 L 59.5 -114.453125 L 108.046875 -114.453125 L 108.046875 -76.296875 L 59.5 -76.296875 L 59.5 0 L 21.34375 0 L 21.34375 -190.75 L 116.578125 -190.75 Z M 116.578125 -152.59375 "/></g></g></g><g fill="#ffffff" fill-opacity="1"><g transform="translate(488.58367, 254.656412)"><g/></g></g><g fill="#ffffff" fill-opacity="1"><g transform="translate(564.348961, 254.656412)"><g><path d="M 78.171875 -190.75 C 93.992188 -190.75 107.863281 -188.078125 119.78125 -182.734375 C 131.695312 -177.398438 141.613281 -170.195312 149.53125 -161.125 C 157.445312 -152.0625 163.40625 -141.835938 167.40625 -130.453125 C 171.40625 -119.066406 173.40625 -107.367188 173.40625 -95.359375 C 173.40625 -83.359375 171.40625 -71.664062 167.40625 -60.28125 C 163.40625 -48.90625 157.445312 -38.679688 149.53125 -29.609375 C 141.613281 -20.535156 131.695312 -13.332031 119.78125 -8 C 107.863281 -2.664062 93.992188 0 78.171875 0 L 21.34375 0 L 21.34375 -190.75 Z M 78.171875 -152.59375 L 59.5 -152.59375 L 59.5 -38.15625 L 78.171875 -38.15625 C 88.835938 -38.15625 97.945312 -40.195312 105.5 -44.28125 C 113.0625 -48.375 119.109375 -53.84375 123.640625 -60.6875 C 128.179688 -67.539062 131.207031 -75.054688 132.71875 -83.234375 C 134.226562 -91.410156 134.226562 -99.546875 132.71875 -107.640625 C 131.207031 -115.734375 128.179688 -123.203125 123.640625 -130.046875 C 119.109375 -136.898438 113.0625 -142.367188 105.5 -146.453125 C 97.945312 -150.546875 88.835938 -152.59375 78.171875 -152.59375 Z M 78.171875 -152.59375 "/></g></g></g><g fill="#ffffff" fill-opacity="1"><g transform="translate(752.161507, 254.656412)"><g><path d="M 59.5 0 L 21.34375 0 L 21.34375 -190.75 L 59.5 -190.75 Z M 59.5 0 "/></g></g></g><g fill="#ffffff" fill-opacity="1"><g transform="translate(833.262416, 254.656412)"><g><path d="M 159 -11.734375 C 151.707031 -7.648438 143.925781 -4.492188 135.65625 -2.265625 C 127.382812 -0.046875 118.710938 1.0625 109.640625 1.0625 C 93.992188 1.0625 80.164062 -1.601562 68.15625 -6.9375 C 56.15625 -12.269531 46.0625 -19.425781 37.875 -28.40625 C 29.695312 -37.394531 23.519531 -47.535156 19.34375 -58.828125 C 15.164062 -70.117188 12.984375 -81.8125 12.796875 -93.90625 C 12.617188 -106 14.441406 -117.738281 18.265625 -129.125 C 22.097656 -140.507812 28.015625 -150.867188 36.015625 -160.203125 C 44.015625 -169.535156 54.148438 -177.09375 66.421875 -182.875 C 78.703125 -188.65625 93.109375 -191.8125 109.640625 -192.34375 C 117.296875 -192.707031 124.28125 -192.351562 130.59375 -191.28125 C 136.90625 -190.21875 142.148438 -189.0625 146.328125 -187.8125 C 150.503906 -186.570312 153.128906 -185.769531 154.203125 -185.40625 L 149.671875 -146.734375 C 145.929688 -148.328125 140.859375 -149.96875 134.453125 -151.65625 C 128.054688 -153.351562 119.785156 -154.023438 109.640625 -153.671875 C 98.617188 -153.304688 89.238281 -150.898438 81.5 -146.453125 C 73.757812 -142.015625 67.625 -136.328125 63.09375 -129.390625 C 58.5625 -122.453125 55.582031 -114.890625 54.15625 -106.703125 C 52.726562 -98.523438 52.816406 -90.34375 54.421875 -82.15625 C 56.023438 -73.976562 59.179688 -66.46875 63.890625 -59.625 C 68.609375 -52.78125 74.789062 -47.3125 82.4375 -43.21875 C 90.082031 -39.125 99.148438 -37.078125 109.640625 -37.078125 C 111.421875 -37.078125 113.203125 -37.210938 114.984375 -37.484375 C 116.765625 -37.753906 118.539062 -37.976562 120.3125 -38.15625 L 120.3125 -95.5 L 159 -95.5 Z M 159 -11.734375 "/></g></g></g><g fill="#ffffff" fill-opacity="1"><g transform="translate(1012.804768, 254.656412)"><g><path d="M 59.5 0 L 21.34375 0 L 21.34375 -190.75 L 59.5 -190.75 Z M 59.5 0 "/></g></g></g><g fill="#ffffff" fill-opacity="1"><g transform="translate(1093.905619, 254.656412)"><g><path d="M 90.96875 0 L 52.828125 0 L 52.828125 -152.59375 L 5.328125 -152.59375 L 5.328125 -190.484375 L 138.453125 -190.484375 L 138.453125 -152.59375 L 90.96875 -152.59375 Z M 90.96875 0 "/></g></g></g><g fill="#ffffff" fill-opacity="1"><g transform="translate(1223.026306, 254.656412)"><g><path d="M 4.265625 0 L 84.5625 -197.6875 L 88.578125 -197.6875 L 168.875 0 L 125.921875 0 L 118.1875 -20.546875 L 54.953125 -20.546875 L 47.484375 0 Z M 68.828125 -56.296875 L 104.046875 -56.296875 L 86.703125 -105.90625 Z M 68.828125 -56.296875 "/></g></g></g><g fill="#ffffff" fill-opacity="1"><g transform="translate(1397.233068, 254.656412)"><g><path d="M 21.34375 -190.75 L 59.5 -190.75 L 59.5 -38.15625 L 120.046875 -38.15625 L 120.046875 0 L 21.34375 0 Z M 21.34375 -190.75 "/></g></g></g><g fill="#ffffff" fill-opacity="1"><g transform="translate(1528.755234, 254.656412)"><g/></g></g><g fill="#ffffff" fill-opacity="1"><g transform="translate(1604.520611, 254.656412)"><g><path d="M 59.5 0 L 21.34375 0 L 21.34375 -190.75 L 59.5 -190.75 Z M 59.5 0 "/></g></g></g><g fill="#ffffff" fill-opacity="1"><g transform="translate(1685.621403, 254.656412)"><g><path d="M 12.53125 -12.265625 L 17.34375 -52.296875 C 24.632812 -47.128906 31.878906 -43.4375 39.078125 -41.21875 C 46.285156 -39 52.820312 -37.707031 58.6875 -37.34375 C 64.5625 -36.988281 68.921875 -36.898438 71.765625 -37.078125 C 77.453125 -37.429688 82.296875 -39.429688 86.296875 -43.078125 C 90.304688 -46.722656 92.039062 -51.128906 91.5 -56.296875 C 91.144531 -61.804688 89.097656 -65.984375 85.359375 -68.828125 C 81.628906 -71.671875 77.097656 -73.984375 71.765625 -75.765625 C 61.804688 -79.503906 52.515625 -83.816406 43.890625 -88.703125 C 35.265625 -93.597656 28.328125 -99.691406 23.078125 -106.984375 C 17.828125 -114.273438 15.203125 -123.253906 15.203125 -133.921875 C 15.203125 -144.597656 17.46875 -154.25 22 -162.875 C 26.539062 -171.5 32.898438 -178.390625 41.078125 -183.546875 C 49.265625 -188.703125 58.601562 -191.546875 69.09375 -192.078125 C 74.070312 -192.429688 80.160156 -192.253906 87.359375 -191.546875 C 94.566406 -190.835938 104.304688 -188.347656 116.578125 -184.078125 L 111.78125 -147.265625 C 101.289062 -151.535156 92.929688 -153.976562 86.703125 -154.59375 C 80.472656 -155.21875 75.847656 -155.441406 72.828125 -155.265625 C 66.066406 -154.910156 61.128906 -152.597656 58.015625 -148.328125 C 54.910156 -144.054688 53.535156 -139.253906 53.890625 -133.921875 C 54.421875 -128.585938 56.734375 -124.539062 60.828125 -121.78125 C 64.921875 -119.03125 69.722656 -116.675781 75.234375 -114.71875 C 85.191406 -111.15625 94.347656 -106.75 102.703125 -101.5 C 111.066406 -96.257812 117.78125 -89.945312 122.84375 -82.5625 C 127.914062 -75.1875 130.453125 -66.429688 130.453125 -56.296875 C 130.453125 -45.796875 128.140625 -36.273438 123.515625 -27.734375 C 118.890625 -19.203125 112.265625 -12.359375 103.640625 -7.203125 C 95.015625 -2.046875 84.742188 0.882812 72.828125 1.59375 C 69.273438 1.78125 64.429688 1.648438 58.296875 1.203125 C 52.160156 0.753906 45.175781 -0.488281 37.34375 -2.53125 C 29.519531 -4.582031 21.25 -7.828125 12.53125 -12.265625 Z M 12.53125 -12.265625 "/></g></g></g><g fill="#ffffff" fill-opacity="1"><g transform="translate(1826.747617, 254.656412)"><g><path d="M 21.34375 -190.75 L 59.5 -190.75 L 59.5 -38.15625 L 120.046875 -38.15625 L 120.046875 0 L 21.34375 0 Z M 21.34375 -190.75 "/></g></g></g><g fill="#ffffff" fill-opacity="1"><g transform="translate(1958.269783, 254.656412)"><g><path d="M 4.265625 0 L 84.5625 -197.6875 L 88.578125 -197.6875 L 168.875 0 L 125.921875 0 L 118.1875 -20.546875 L 54.953125 -20.546875 L 47.484375 0 Z M 68.828125 -56.296875 L 104.046875 -56.296875 L 86.703125 -105.90625 Z M 68.828125 -56.296875 "/></g></g></g><g fill="#ffffff" fill-opacity="1"><g transform="translate(2132.476546, 254.656412)"><g><path d="M 108.84375 -109.90625 L 184.078125 -193.6875 L 196.078125 -193.6875 L 196.078125 0 L 157.40625 0 L 157.671875 -106.453125 L 108.84375 -55.21875 L 60.03125 -106.453125 L 60.03125 0 L 21.34375 0 L 21.34375 -193.6875 L 33.609375 -193.6875 Z M 108.84375 -109.90625 "/></g></g></g><g fill="#ffffff" fill-opacity="1"><g transform="translate(2350.168397, 254.656412)"><g><path d="M 59.5 0 L 21.34375 0 L 21.34375 -190.75 L 59.5 -190.75 Z M 59.5 0 "/></g></g></g><g fill="#ffffff" fill-opacity="1"><g transform="translate(2431.269306, 254.656412)"><g><path d="M 142.734375 -146.46875 C 139.171875 -148.414062 134.851562 -150.28125 129.78125 -152.0625 C 124.71875 -153.84375 118.003906 -154.734375 109.640625 -154.734375 C 98.796875 -154.734375 89.550781 -152.640625 81.90625 -148.453125 C 74.257812 -144.273438 68.125 -138.71875 63.5 -131.78125 C 58.875 -124.851562 55.757812 -117.253906 54.15625 -108.984375 C 52.550781 -100.710938 52.550781 -92.441406 54.15625 -84.171875 C 55.757812 -75.898438 58.875 -68.296875 63.5 -61.359375 C 68.125 -54.421875 74.257812 -48.863281 81.90625 -44.6875 C 89.550781 -40.507812 98.796875 -38.421875 109.640625 -38.421875 C 118.003906 -38.421875 125.34375 -39.394531 131.65625 -41.34375 C 137.96875 -43.300781 142.90625 -45.171875 146.46875 -46.953125 L 151.53125 -7.46875 C 145.664062 -5.15625 138.90625 -3.242188 131.25 -1.734375 C 123.601562 -0.222656 116.398438 0.53125 109.640625 0.53125 C 93.460938 0.53125 79.328125 -2.175781 67.234375 -7.59375 C 55.140625 -13.019531 45.046875 -20.359375 36.953125 -29.609375 C 28.859375 -38.859375 22.8125 -49.21875 18.8125 -60.6875 C 14.8125 -72.164062 12.8125 -84.039062 12.8125 -96.3125 C 12.8125 -108.582031 14.8125 -120.453125 18.8125 -131.921875 C 22.8125 -143.390625 28.859375 -153.75 36.953125 -163 C 45.046875 -172.25 55.140625 -179.585938 67.234375 -185.015625 C 79.328125 -190.441406 93.460938 -193.15625 109.640625 -193.15625 C 123.515625 -193.15625 136.054688 -190.664062 147.265625 -185.6875 Z M 142.734375 -146.46875 "/></g></g></g><g fill="#ffffff" fill-opacity="1"><g transform="translate(2591.870371, 254.656412)"><g/></g></g><g fill="#ffffff" fill-opacity="1"><g transform="translate(2667.635516, 254.656412)"><g><path d="M 21.34375 -190.75 L 59.5 -190.75 L 59.5 -38.15625 L 120.046875 -38.15625 L 120.046875 0 L 21.34375 0 Z M 21.34375 -190.75 "/></g></g></g><g fill="#ffffff" fill-opacity="1"><g transform="translate(2799.157681, 254.656412)"><g><path d="M 59.5 0 L 21.34375 0 L 21.34375 -190.75 L 59.5 -190.75 Z M 59.5 0 "/></g></g></g><g fill="#ffffff" fill-opacity="1"><g transform="translate(2880.25859, 254.656412)"><g><path d="M 21.34375 0 L 21.34375 -191.015625 L 96.84375 -191.015625 C 108.226562 -191.015625 118.007812 -188.523438 126.1875 -183.546875 C 134.363281 -178.566406 140.628906 -171.71875 144.984375 -163 C 149.347656 -154.289062 151.351562 -144.332031 151 -133.125 C 150.820312 -126.007812 149.351562 -118.984375 146.59375 -112.046875 C 143.84375 -105.109375 139.441406 -99.59375 133.390625 -95.5 C 139.617188 -91.238281 144.460938 -85.679688 147.921875 -78.828125 C 151.390625 -71.984375 153.125 -64.828125 153.125 -57.359375 C 153.125 -46.679688 150.585938 -37.03125 145.515625 -28.40625 C 140.453125 -19.78125 133.648438 -12.890625 125.109375 -7.734375 C 116.578125 -2.578125 107.15625 0 96.84375 0 Z M 59.765625 -152.859375 L 59.765625 -114.453125 L 93.640625 -114.453125 C 99.148438 -114.453125 103.460938 -116.363281 106.578125 -120.1875 C 109.691406 -124.007812 111.25 -128.5 111.25 -133.65625 C 111.25 -138.988281 109.691406 -143.519531 106.578125 -147.25 C 103.460938 -150.988281 99.148438 -152.859375 93.640625 -152.859375 Z M 59.765625 -76.296875 L 59.765625 -38.15625 L 93.640625 -38.15625 C 99.148438 -38.15625 103.726562 -40.019531 107.375 -43.75 C 111.019531 -47.488281 112.84375 -52.023438 112.84375 -57.359375 C 112.84375 -62.691406 111.019531 -67.179688 107.375 -70.828125 C 103.726562 -74.472656 99.148438 -76.296875 93.640625 -76.296875 Z M 59.765625 -76.296875 "/></g></g></g><g fill="#ffffff" fill-opacity="1"><g transform="translate(3045.928433, 254.656412)"><g><path d="M 116.3125 0 L 77.90625 -72.828125 L 59.5 -72.828125 L 59.5 0 L 21.34375 0 L 21.34375 -190.75 L 96.578125 -190.75 C 107.960938 -190.75 117.609375 -188.390625 125.515625 -183.671875 C 133.429688 -178.960938 139.613281 -172.828125 144.0625 -165.265625 C 148.507812 -157.710938 151.265625 -149.53125 152.328125 -140.71875 C 153.398438 -131.914062 152.734375 -123.289062 150.328125 -114.84375 C 147.929688 -106.394531 143.84375 -98.925781 138.0625 -92.4375 C 132.28125 -85.945312 124.675781 -81.367188 115.25 -78.703125 L 159.53125 0 Z M 59.5 -109.90625 L 93.109375 -109.90625 C 98.265625 -109.90625 102.398438 -111.328125 105.515625 -114.171875 C 108.628906 -117.023438 110.71875 -120.582031 111.78125 -124.84375 C 112.84375 -129.113281 112.84375 -133.382812 111.78125 -137.65625 C 110.71875 -141.925781 108.628906 -145.484375 105.515625 -148.328125 C 102.398438 -151.171875 98.265625 -152.59375 93.109375 -152.59375 L 59.5 -152.59375 Z M 59.5 -109.90625 "/></g></g></g><g fill="#ffffff" fill-opacity="1"><g transform="translate(3209.464249, 254.656412)"><g><path d="M 4.265625 0 L 84.5625 -197.6875 L 88.578125 -197.6875 L 168.875 0 L 125.921875 0 L 118.1875 -20.546875 L 54.953125 -20.546875 L 47.484375 0 Z M 68.828125 -56.296875 L 104.046875 -56.296875 L 86.703125 -105.90625 Z M 68.828125 -56.296875 "/></g></g></g><g fill="#ffffff" fill-opacity="1"><g transform="translate(3383.670896, 254.656412)"><g><path d="M 116.3125 0 L 77.90625 -72.828125 L 59.5 -72.828125 L 59.5 0 L 21.34375 0 L 21.34375 -190.75 L 96.578125 -190.75 C 107.960938 -190.75 117.609375 -188.390625 125.515625 -183.671875 C 133.429688 -178.960938 139.613281 -172.828125 144.0625 -165.265625 C 148.507812 -157.710938 151.265625 -149.53125 152.328125 -140.71875 C 153.398438 -131.914062 152.734375 -123.289062 150.328125 -114.84375 C 147.929688 -106.394531 143.84375 -98.925781 138.0625 -92.4375 C 132.28125 -85.945312 124.675781 -81.367188 115.25 -78.703125 L 159.53125 0 Z M 59.5 -109.90625 L 93.109375 -109.90625 C 98.265625 -109.90625 102.398438 -111.328125 105.515625 -114.171875 C 108.628906 -117.023438 110.71875 -120.582031 111.78125 -124.84375 C 112.84375 -129.113281 112.84375 -133.382812 111.78125 -137.65625 C 110.71875 -141.925781 108.628906 -145.484375 105.515625 -148.328125 C 102.398438 -151.171875 98.265625 -152.59375 93.109375 -152.59375 L 59.5 -152.59375 Z M 59.5 -109.90625 "/></g></g></g><g fill="#ffffff" fill-opacity="1"><g transform="translate(3547.206712, 254.656412)"><g><path d="M 68.03125 0 L 68.03125 -85.90625 L 1.59375 -190.75 L 48.015625 -190.75 L 86.96875 -125.125 L 125.921875 -190.75 L 172.609375 -190.75 L 105.90625 -85.90625 L 105.90625 0 Z M 68.03125 0 "/></g></g></g></g></g></g></g></g></svg>